<mxfile host="app.diagrams.net" agent="Mozilla/5.0 (Windows NT 10.0; Win64; x64) AppleWebKit/537.36 (KHTML, like Gecko) Chrome/127.0.0.0 Safari/537.36" version="24.7.6">
  <diagram name="第 1 页" id="9FItwEEfPp_pVw3erkbD">
    <mxGraphModel dx="1434" dy="772" grid="1" gridSize="10" guides="1" tooltips="1" connect="1" arrows="1" fold="1" page="1" pageScale="1" pageWidth="827" pageHeight="1169" math="0" shadow="0">
      <root>
        <mxCell id="0" />
        <mxCell id="1" parent="0" />
        <mxCell id="alLkKtOdE__bNnjHR1nM-3" value="" style="edgeStyle=orthogonalEdgeStyle;rounded=0;orthogonalLoop=1;jettySize=auto;html=1;" edge="1" parent="1" source="alLkKtOdE__bNnjHR1nM-1" target="alLkKtOdE__bNnjHR1nM-2">
          <mxGeometry relative="1" as="geometry" />
        </mxCell>
        <mxCell id="alLkKtOdE__bNnjHR1nM-1" value="Start" style="ellipse" vertex="1" parent="1">
          <mxGeometry x="370" y="380" width="80" height="30" as="geometry" />
        </mxCell>
        <mxCell id="alLkKtOdE__bNnjHR1nM-2" value="" style="whiteSpace=wrap;html=1;" vertex="1" parent="1">
          <mxGeometry x="510" y="365" width="120" height="60" as="geometry" />
        </mxCell>
        <mxCell id="alLkKtOdE__bNnjHR1nM-4" value="Table" style="shape=table;startSize=30;container=1;collapsible=0;childLayout=tableLayout;strokeColor=default;fontSize=16;" vertex="1" parent="1">
          <mxGeometry x="140" y="250" width="180" height="150" as="geometry" />
        </mxCell>
        <mxCell id="alLkKtOdE__bNnjHR1nM-5" value="" style="shape=tableRow;horizontal=0;startSize=0;swimlaneHead=0;swimlaneBody=0;strokeColor=inherit;top=0;left=0;bottom=0;right=0;collapsible=0;dropTarget=0;fillColor=none;points=[[0,0.5],[1,0.5]];portConstraint=eastwest;fontSize=16;" vertex="1" parent="alLkKtOdE__bNnjHR1nM-4">
          <mxGeometry y="30" width="180" height="40" as="geometry" />
        </mxCell>
        <mxCell id="alLkKtOdE__bNnjHR1nM-6" value="" style="shape=partialRectangle;html=1;whiteSpace=wrap;connectable=0;strokeColor=inherit;overflow=hidden;fillColor=none;top=0;left=0;bottom=0;right=0;pointerEvents=1;fontSize=16;" vertex="1" parent="alLkKtOdE__bNnjHR1nM-5">
          <mxGeometry width="60" height="40" as="geometry">
            <mxRectangle width="60" height="40" as="alternateBounds" />
          </mxGeometry>
        </mxCell>
        <mxCell id="alLkKtOdE__bNnjHR1nM-7" value="" style="shape=partialRectangle;html=1;whiteSpace=wrap;connectable=0;strokeColor=inherit;overflow=hidden;fillColor=none;top=0;left=0;bottom=0;right=0;pointerEvents=1;fontSize=16;" vertex="1" parent="alLkKtOdE__bNnjHR1nM-5">
          <mxGeometry x="60" width="60" height="40" as="geometry">
            <mxRectangle width="60" height="40" as="alternateBounds" />
          </mxGeometry>
        </mxCell>
        <mxCell id="alLkKtOdE__bNnjHR1nM-8" value="" style="shape=partialRectangle;html=1;whiteSpace=wrap;connectable=0;strokeColor=inherit;overflow=hidden;fillColor=none;top=0;left=0;bottom=0;right=0;pointerEvents=1;fontSize=16;" vertex="1" parent="alLkKtOdE__bNnjHR1nM-5">
          <mxGeometry x="120" width="60" height="40" as="geometry">
            <mxRectangle width="60" height="40" as="alternateBounds" />
          </mxGeometry>
        </mxCell>
        <mxCell id="alLkKtOdE__bNnjHR1nM-9" value="" style="shape=tableRow;horizontal=0;startSize=0;swimlaneHead=0;swimlaneBody=0;strokeColor=inherit;top=0;left=0;bottom=0;right=0;collapsible=0;dropTarget=0;fillColor=none;points=[[0,0.5],[1,0.5]];portConstraint=eastwest;fontSize=16;" vertex="1" parent="alLkKtOdE__bNnjHR1nM-4">
          <mxGeometry y="70" width="180" height="40" as="geometry" />
        </mxCell>
        <mxCell id="alLkKtOdE__bNnjHR1nM-10" value="" style="shape=partialRectangle;html=1;whiteSpace=wrap;connectable=0;strokeColor=inherit;overflow=hidden;fillColor=none;top=0;left=0;bottom=0;right=0;pointerEvents=1;fontSize=16;" vertex="1" parent="alLkKtOdE__bNnjHR1nM-9">
          <mxGeometry width="60" height="40" as="geometry">
            <mxRectangle width="60" height="40" as="alternateBounds" />
          </mxGeometry>
        </mxCell>
        <mxCell id="alLkKtOdE__bNnjHR1nM-11" value="" style="shape=partialRectangle;html=1;whiteSpace=wrap;connectable=0;strokeColor=inherit;overflow=hidden;fillColor=none;top=0;left=0;bottom=0;right=0;pointerEvents=1;fontSize=16;" vertex="1" parent="alLkKtOdE__bNnjHR1nM-9">
          <mxGeometry x="60" width="60" height="40" as="geometry">
            <mxRectangle width="60" height="40" as="alternateBounds" />
          </mxGeometry>
        </mxCell>
        <mxCell id="alLkKtOdE__bNnjHR1nM-12" value="" style="shape=partialRectangle;html=1;whiteSpace=wrap;connectable=0;strokeColor=inherit;overflow=hidden;fillColor=none;top=0;left=0;bottom=0;right=0;pointerEvents=1;fontSize=16;" vertex="1" parent="alLkKtOdE__bNnjHR1nM-9">
          <mxGeometry x="120" width="60" height="40" as="geometry">
            <mxRectangle width="60" height="40" as="alternateBounds" />
          </mxGeometry>
        </mxCell>
        <mxCell id="alLkKtOdE__bNnjHR1nM-13" value="" style="shape=tableRow;horizontal=0;startSize=0;swimlaneHead=0;swimlaneBody=0;strokeColor=inherit;top=0;left=0;bottom=0;right=0;collapsible=0;dropTarget=0;fillColor=none;points=[[0,0.5],[1,0.5]];portConstraint=eastwest;fontSize=16;" vertex="1" parent="alLkKtOdE__bNnjHR1nM-4">
          <mxGeometry y="110" width="180" height="40" as="geometry" />
        </mxCell>
        <mxCell id="alLkKtOdE__bNnjHR1nM-14" value="" style="shape=partialRectangle;html=1;whiteSpace=wrap;connectable=0;strokeColor=inherit;overflow=hidden;fillColor=none;top=0;left=0;bottom=0;right=0;pointerEvents=1;fontSize=16;" vertex="1" parent="alLkKtOdE__bNnjHR1nM-13">
          <mxGeometry width="60" height="40" as="geometry">
            <mxRectangle width="60" height="40" as="alternateBounds" />
          </mxGeometry>
        </mxCell>
        <mxCell id="alLkKtOdE__bNnjHR1nM-15" value="" style="shape=partialRectangle;html=1;whiteSpace=wrap;connectable=0;strokeColor=inherit;overflow=hidden;fillColor=none;top=0;left=0;bottom=0;right=0;pointerEvents=1;fontSize=16;" vertex="1" parent="alLkKtOdE__bNnjHR1nM-13">
          <mxGeometry x="60" width="60" height="40" as="geometry">
            <mxRectangle width="60" height="40" as="alternateBounds" />
          </mxGeometry>
        </mxCell>
        <mxCell id="alLkKtOdE__bNnjHR1nM-16" value="" style="shape=partialRectangle;html=1;whiteSpace=wrap;connectable=0;strokeColor=inherit;overflow=hidden;fillColor=none;top=0;left=0;bottom=0;right=0;pointerEvents=1;fontSize=16;" vertex="1" parent="alLkKtOdE__bNnjHR1nM-13">
          <mxGeometry x="120" width="60" height="40" as="geometry">
            <mxRectangle width="60" height="40" as="alternateBounds" />
          </mxGeometry>
        </mxCell>
        <mxCell id="alLkKtOdE__bNnjHR1nM-17" value="Assets" style="childLayout=tableLayout;recursiveResize=0;strokeColor=#98bf21;fillColor=#A7C942;shadow=1;" vertex="1" parent="1">
          <mxGeometry x="250" y="480" width="280" height="160" as="geometry" />
        </mxCell>
        <mxCell id="alLkKtOdE__bNnjHR1nM-18" style="shape=tableRow;horizontal=0;startSize=0;swimlaneHead=0;swimlaneBody=0;top=0;left=0;bottom=0;right=0;dropTarget=0;collapsible=0;recursiveResize=0;expand=0;fontStyle=0;strokeColor=inherit;fillColor=#ffffff;" vertex="1" parent="alLkKtOdE__bNnjHR1nM-17">
          <mxGeometry width="280" height="33" as="geometry" />
        </mxCell>
        <mxCell id="alLkKtOdE__bNnjHR1nM-19" value="Title 1" style="connectable=0;recursiveResize=0;strokeColor=inherit;fillColor=#A7C942;align=center;fontStyle=1;fontColor=#FFFFFF;html=1;" vertex="1" parent="alLkKtOdE__bNnjHR1nM-18">
          <mxGeometry width="93" height="33" as="geometry">
            <mxRectangle width="93" height="33" as="alternateBounds" />
          </mxGeometry>
        </mxCell>
        <mxCell id="alLkKtOdE__bNnjHR1nM-20" value="Title 2" style="connectable=0;recursiveResize=0;strokeColor=inherit;fillColor=#A7C942;align=center;fontStyle=1;fontColor=#FFFFFF;html=1;" vertex="1" parent="alLkKtOdE__bNnjHR1nM-18">
          <mxGeometry x="93" width="94" height="33" as="geometry">
            <mxRectangle width="94" height="33" as="alternateBounds" />
          </mxGeometry>
        </mxCell>
        <mxCell id="alLkKtOdE__bNnjHR1nM-21" value="Title 3" style="connectable=0;recursiveResize=0;strokeColor=inherit;fillColor=#A7C942;align=center;fontStyle=1;fontColor=#FFFFFF;html=1;" vertex="1" parent="alLkKtOdE__bNnjHR1nM-18">
          <mxGeometry x="187" width="93" height="33" as="geometry">
            <mxRectangle width="93" height="33" as="alternateBounds" />
          </mxGeometry>
        </mxCell>
        <mxCell id="alLkKtOdE__bNnjHR1nM-22" value="" style="shape=tableRow;horizontal=0;startSize=0;swimlaneHead=0;swimlaneBody=0;top=0;left=0;bottom=0;right=0;dropTarget=0;collapsible=0;recursiveResize=0;expand=0;fontStyle=0;strokeColor=inherit;fillColor=#ffffff;" vertex="1" parent="alLkKtOdE__bNnjHR1nM-17">
          <mxGeometry y="33" width="280" height="32" as="geometry" />
        </mxCell>
        <mxCell id="alLkKtOdE__bNnjHR1nM-23" value="Value 1" style="connectable=0;recursiveResize=0;strokeColor=inherit;fillColor=inherit;align=center;whiteSpace=wrap;html=1;" vertex="1" parent="alLkKtOdE__bNnjHR1nM-22">
          <mxGeometry width="93" height="32" as="geometry">
            <mxRectangle width="93" height="32" as="alternateBounds" />
          </mxGeometry>
        </mxCell>
        <mxCell id="alLkKtOdE__bNnjHR1nM-24" value="Value 2" style="connectable=0;recursiveResize=0;strokeColor=inherit;fillColor=inherit;align=center;whiteSpace=wrap;html=1;" vertex="1" parent="alLkKtOdE__bNnjHR1nM-22">
          <mxGeometry x="93" width="94" height="32" as="geometry">
            <mxRectangle width="94" height="32" as="alternateBounds" />
          </mxGeometry>
        </mxCell>
        <mxCell id="alLkKtOdE__bNnjHR1nM-25" value="Value 3" style="connectable=0;recursiveResize=0;strokeColor=inherit;fillColor=inherit;align=center;whiteSpace=wrap;html=1;" vertex="1" parent="alLkKtOdE__bNnjHR1nM-22">
          <mxGeometry x="187" width="93" height="32" as="geometry">
            <mxRectangle width="93" height="32" as="alternateBounds" />
          </mxGeometry>
        </mxCell>
        <mxCell id="alLkKtOdE__bNnjHR1nM-26" value="" style="shape=tableRow;horizontal=0;startSize=0;swimlaneHead=0;swimlaneBody=0;top=0;left=0;bottom=0;right=0;dropTarget=0;collapsible=0;recursiveResize=0;expand=0;fontStyle=1;strokeColor=inherit;fillColor=#EAF2D3;" vertex="1" parent="alLkKtOdE__bNnjHR1nM-17">
          <mxGeometry y="65" width="280" height="31" as="geometry" />
        </mxCell>
        <mxCell id="alLkKtOdE__bNnjHR1nM-27" value="Value 4" style="connectable=0;recursiveResize=0;strokeColor=inherit;fillColor=inherit;whiteSpace=wrap;html=1;" vertex="1" parent="alLkKtOdE__bNnjHR1nM-26">
          <mxGeometry width="93" height="31" as="geometry">
            <mxRectangle width="93" height="31" as="alternateBounds" />
          </mxGeometry>
        </mxCell>
        <mxCell id="alLkKtOdE__bNnjHR1nM-28" value="Value 5" style="connectable=0;recursiveResize=0;strokeColor=inherit;fillColor=inherit;whiteSpace=wrap;html=1;" vertex="1" parent="alLkKtOdE__bNnjHR1nM-26">
          <mxGeometry x="93" width="94" height="31" as="geometry">
            <mxRectangle width="94" height="31" as="alternateBounds" />
          </mxGeometry>
        </mxCell>
        <mxCell id="alLkKtOdE__bNnjHR1nM-29" value="Value 6" style="connectable=0;recursiveResize=0;strokeColor=inherit;fillColor=inherit;whiteSpace=wrap;html=1;" vertex="1" parent="alLkKtOdE__bNnjHR1nM-26">
          <mxGeometry x="187" width="93" height="31" as="geometry">
            <mxRectangle width="93" height="31" as="alternateBounds" />
          </mxGeometry>
        </mxCell>
        <mxCell id="alLkKtOdE__bNnjHR1nM-30" value="" style="shape=tableRow;horizontal=0;startSize=0;swimlaneHead=0;swimlaneBody=0;top=0;left=0;bottom=0;right=0;dropTarget=0;collapsible=0;recursiveResize=0;expand=0;fontStyle=0;strokeColor=inherit;fillColor=#ffffff;" vertex="1" parent="alLkKtOdE__bNnjHR1nM-17">
          <mxGeometry y="96" width="280" height="33" as="geometry" />
        </mxCell>
        <mxCell id="alLkKtOdE__bNnjHR1nM-31" value="Value 7" style="connectable=0;recursiveResize=0;strokeColor=inherit;fillColor=inherit;fontStyle=0;align=center;whiteSpace=wrap;html=1;" vertex="1" parent="alLkKtOdE__bNnjHR1nM-30">
          <mxGeometry width="93" height="33" as="geometry">
            <mxRectangle width="93" height="33" as="alternateBounds" />
          </mxGeometry>
        </mxCell>
        <mxCell id="alLkKtOdE__bNnjHR1nM-32" value="Value 8" style="connectable=0;recursiveResize=0;strokeColor=inherit;fillColor=inherit;fontStyle=0;align=center;whiteSpace=wrap;html=1;" vertex="1" parent="alLkKtOdE__bNnjHR1nM-30">
          <mxGeometry x="93" width="94" height="33" as="geometry">
            <mxRectangle width="94" height="33" as="alternateBounds" />
          </mxGeometry>
        </mxCell>
        <mxCell id="alLkKtOdE__bNnjHR1nM-33" value="Value 9" style="connectable=0;recursiveResize=0;strokeColor=inherit;fillColor=inherit;fontStyle=0;align=center;whiteSpace=wrap;html=1;" vertex="1" parent="alLkKtOdE__bNnjHR1nM-30">
          <mxGeometry x="187" width="93" height="33" as="geometry">
            <mxRectangle width="93" height="33" as="alternateBounds" />
          </mxGeometry>
        </mxCell>
        <mxCell id="alLkKtOdE__bNnjHR1nM-34" value="" style="shape=tableRow;horizontal=0;startSize=0;swimlaneHead=0;swimlaneBody=0;top=0;left=0;bottom=0;right=0;dropTarget=0;collapsible=0;recursiveResize=0;expand=0;fontStyle=1;strokeColor=inherit;fillColor=#EAF2D3;" vertex="1" parent="alLkKtOdE__bNnjHR1nM-17">
          <mxGeometry y="129" width="280" height="31" as="geometry" />
        </mxCell>
        <mxCell id="alLkKtOdE__bNnjHR1nM-35" value="Value 10" style="connectable=0;recursiveResize=0;strokeColor=inherit;fillColor=inherit;whiteSpace=wrap;html=1;" vertex="1" parent="alLkKtOdE__bNnjHR1nM-34">
          <mxGeometry width="93" height="31" as="geometry">
            <mxRectangle width="93" height="31" as="alternateBounds" />
          </mxGeometry>
        </mxCell>
        <mxCell id="alLkKtOdE__bNnjHR1nM-36" value="Value 11" style="connectable=0;recursiveResize=0;strokeColor=inherit;fillColor=inherit;whiteSpace=wrap;html=1;" vertex="1" parent="alLkKtOdE__bNnjHR1nM-34">
          <mxGeometry x="93" width="94" height="31" as="geometry">
            <mxRectangle width="94" height="31" as="alternateBounds" />
          </mxGeometry>
        </mxCell>
        <mxCell id="alLkKtOdE__bNnjHR1nM-37" value="Value 12" style="connectable=0;recursiveResize=0;strokeColor=inherit;fillColor=inherit;whiteSpace=wrap;html=1;" vertex="1" parent="alLkKtOdE__bNnjHR1nM-34">
          <mxGeometry x="187" width="93" height="31" as="geometry">
            <mxRectangle width="93" height="31" as="alternateBounds" />
          </mxGeometry>
        </mxCell>
        <mxCell id="alLkKtOdE__bNnjHR1nM-38" value="Label" style="label;whiteSpace=wrap;html=1;image=img/clipart/Gear_128x128.png" vertex="1" parent="1">
          <mxGeometry x="110" y="513" width="140" height="60" as="geometry" />
        </mxCell>
        <mxCell id="alLkKtOdE__bNnjHR1nM-39" value="Vertical Tree Layout" style="swimlane;startSize=20;horizontal=1;childLayout=treeLayout;horizontalTree=0;sortEdges=1;resizable=0;containerType=tree;fontSize=12;" vertex="1" parent="1">
          <mxGeometry x="240" y="70" width="840" height="280" as="geometry" />
        </mxCell>
        <mxCell id="alLkKtOdE__bNnjHR1nM-40" value="Root" style="whiteSpace=wrap;html=1;" vertex="1" parent="alLkKtOdE__bNnjHR1nM-39">
          <mxGeometry x="370" y="40" width="100" height="40" as="geometry" />
        </mxCell>
        <mxCell id="alLkKtOdE__bNnjHR1nM-41" value="Child 1" style="whiteSpace=wrap;html=1;" vertex="1" parent="alLkKtOdE__bNnjHR1nM-39">
          <mxGeometry x="20" y="130" width="100" height="40" as="geometry" />
        </mxCell>
        <mxCell id="alLkKtOdE__bNnjHR1nM-42" value="" style="edgeStyle=elbowEdgeStyle;elbow=vertical;html=1;rounded=1;curved=0;sourcePerimeterSpacing=0;targetPerimeterSpacing=0;startSize=6;endSize=6;" edge="1" parent="alLkKtOdE__bNnjHR1nM-39" source="alLkKtOdE__bNnjHR1nM-40" target="alLkKtOdE__bNnjHR1nM-41">
          <mxGeometry relative="1" as="geometry" />
        </mxCell>
        <mxCell id="alLkKtOdE__bNnjHR1nM-43" value="Child 2" style="whiteSpace=wrap;html=1;" vertex="1" parent="alLkKtOdE__bNnjHR1nM-39">
          <mxGeometry x="160" y="130" width="100" height="40" as="geometry" />
        </mxCell>
        <mxCell id="alLkKtOdE__bNnjHR1nM-44" value="" style="edgeStyle=elbowEdgeStyle;elbow=vertical;html=1;rounded=1;curved=0;sourcePerimeterSpacing=0;targetPerimeterSpacing=0;startSize=6;endSize=6;" edge="1" parent="alLkKtOdE__bNnjHR1nM-39" source="alLkKtOdE__bNnjHR1nM-40" target="alLkKtOdE__bNnjHR1nM-43">
          <mxGeometry relative="1" as="geometry" />
        </mxCell>
        <mxCell id="alLkKtOdE__bNnjHR1nM-45" value="" style="edgeStyle=elbowEdgeStyle;elbow=vertical;html=1;rounded=1;curved=0;sourcePerimeterSpacing=0;targetPerimeterSpacing=0;startSize=6;endSize=6;" edge="1" target="alLkKtOdE__bNnjHR1nM-46" source="alLkKtOdE__bNnjHR1nM-43" parent="alLkKtOdE__bNnjHR1nM-39">
          <mxGeometry relative="1" as="geometry">
            <mxPoint x="-170" y="170" as="sourcePoint" />
          </mxGeometry>
        </mxCell>
        <mxCell id="alLkKtOdE__bNnjHR1nM-46" value="Child 2" style="whiteSpace=wrap;html=1;" vertex="1" parent="alLkKtOdE__bNnjHR1nM-39">
          <mxGeometry x="160" y="220" width="100" height="40" as="geometry" />
        </mxCell>
        <mxCell id="alLkKtOdE__bNnjHR1nM-47" value="" style="edgeStyle=orthogonalEdgeStyle;rounded=0;orthogonalLoop=1;jettySize=auto;html=1;" edge="1" source="alLkKtOdE__bNnjHR1nM-40" target="alLkKtOdE__bNnjHR1nM-48" parent="alLkKtOdE__bNnjHR1nM-39">
          <mxGeometry relative="1" as="geometry" />
        </mxCell>
        <mxCell id="alLkKtOdE__bNnjHR1nM-48" value="Root" style="whiteSpace=wrap;html=1;" vertex="1" parent="alLkKtOdE__bNnjHR1nM-39">
          <mxGeometry x="300" y="130" width="100" height="40" as="geometry" />
        </mxCell>
        <mxCell id="alLkKtOdE__bNnjHR1nM-49" value="" style="edgeStyle=orthogonalEdgeStyle;rounded=0;orthogonalLoop=1;jettySize=auto;html=1;" edge="1" source="alLkKtOdE__bNnjHR1nM-40" target="alLkKtOdE__bNnjHR1nM-50" parent="alLkKtOdE__bNnjHR1nM-39">
          <mxGeometry relative="1" as="geometry" />
        </mxCell>
        <mxCell id="alLkKtOdE__bNnjHR1nM-50" value="Root" style="whiteSpace=wrap;html=1;" vertex="1" parent="alLkKtOdE__bNnjHR1nM-39">
          <mxGeometry x="440" y="130" width="100" height="40" as="geometry" />
        </mxCell>
        <mxCell id="alLkKtOdE__bNnjHR1nM-51" value="" style="edgeStyle=orthogonalEdgeStyle;rounded=0;orthogonalLoop=1;jettySize=auto;html=1;exitX=0.5;exitY=1;exitDx=0;exitDy=0;" edge="1" source="alLkKtOdE__bNnjHR1nM-40" target="alLkKtOdE__bNnjHR1nM-52" parent="alLkKtOdE__bNnjHR1nM-39">
          <mxGeometry relative="1" as="geometry" />
        </mxCell>
        <mxCell id="alLkKtOdE__bNnjHR1nM-52" value="Root" style="whiteSpace=wrap;html=1;" vertex="1" parent="alLkKtOdE__bNnjHR1nM-39">
          <mxGeometry x="580" y="130" width="100" height="40" as="geometry" />
        </mxCell>
        <mxCell id="alLkKtOdE__bNnjHR1nM-53" value="" style="edgeStyle=orthogonalEdgeStyle;rounded=0;orthogonalLoop=1;jettySize=auto;html=1;exitX=0.5;exitY=1;exitDx=0;exitDy=0;" edge="1" source="alLkKtOdE__bNnjHR1nM-40" target="alLkKtOdE__bNnjHR1nM-54" parent="alLkKtOdE__bNnjHR1nM-39">
          <mxGeometry relative="1" as="geometry" />
        </mxCell>
        <mxCell id="alLkKtOdE__bNnjHR1nM-54" value="Root" style="whiteSpace=wrap;html=1;" vertex="1" parent="alLkKtOdE__bNnjHR1nM-39">
          <mxGeometry x="720" y="130" width="100" height="40" as="geometry" />
        </mxCell>
      </root>
    </mxGraphModel>
  </diagram>
</mxfile>
